<svg width="22" height="22" viewBox="1 2 16 20" fill="none" xmlns="http://www.w3.org/2000/svg">
<path d="M10.9997 18.9999C10.916 19.0004 10.833 18.9849 10.7554 18.9542C10.6779 18.9236 10.6074 18.8785 10.548 18.8215L6.04947 14.5145C5.39999 13.8906 4.88455 13.1486 4.53281 12.3313C4.18108 11.514 4 10.6375 4 9.75223C4 8.86697 4.18108 7.99045 4.53281 7.17314C4.88455 6.35583 5.39999 5.61386 6.04947 4.98996C7.36786 3.73047 9.14645 3.02417 10.9997 3.02417C12.853 3.02417 14.6316 3.73047 15.95 4.98996C16.5995 5.61386 17.1149 6.35583 17.4666 7.17314C17.8184 7.99045 17.9994 8.86697 17.9994 9.75223C17.9994 10.6375 17.8184 11.514 17.4666 12.3313C17.1149 13.1486 16.5995 13.8906 15.95 14.5145L11.4515 18.8215C11.392 18.8785 11.3215 18.9236 11.244 18.9542C11.1665 18.9849 11.0835 19.0004 10.9997 18.9999ZM10.9997 4.23316C9.48109 4.22956 8.02316 4.80942 6.94662 5.8452C6.41642 6.3547 5.99565 6.96057 5.70852 7.62793C5.42139 8.29528 5.27357 9.01096 5.27357 9.73377C5.27357 10.4566 5.42139 11.1723 5.70852 11.8396C5.99565 12.507 6.41642 13.1128 6.94662 13.6224L10.9997 17.5171L15.0528 13.6224C15.583 13.1128 16.0038 12.507 16.2909 11.8396C16.5781 11.1723 16.7259 10.4566 16.7259 9.73377C16.7259 9.01096 16.5781 8.29528 16.2909 7.62793C16.0038 6.96057 15.583 6.3547 15.0528 5.8452C13.9763 4.80942 12.5184 4.22956 10.9997 4.23316Z" fill="white"/>
<path d="M10.9998 12.8471C10.3705 12.8471 9.75545 12.6667 9.23227 12.3287C8.70909 11.9906 8.30132 11.5102 8.06053 10.948C7.81974 10.3859 7.75674 9.76733 7.87949 9.17057C8.00225 8.5738 8.30524 8.02564 8.75017 7.5954C9.1951 7.16515 9.76197 6.87215 10.3791 6.75345C10.9962 6.63475 11.6359 6.69567 12.2172 6.92851C12.7986 7.16136 13.2954 7.55567 13.645 8.06158C13.9946 8.5675 14.1812 9.16229 14.1812 9.77074C14.1812 10.5867 13.846 11.3692 13.2493 11.9461C12.6527 12.523 11.8435 12.8471 10.9998 12.8471ZM10.9998 7.9249C10.6222 7.9249 10.2532 8.03316 9.93926 8.23598C9.62536 8.4388 9.3807 8.72708 9.23622 9.06437C9.09175 9.40165 9.05394 9.77279 9.1276 10.1308C9.20125 10.4889 9.38305 10.8178 9.65001 11.076C9.91696 11.3341 10.2571 11.5099 10.6274 11.5811C10.9976 11.6523 11.3814 11.6158 11.7302 11.4761C12.079 11.3364 12.3772 11.0998 12.5869 10.7962C12.7966 10.4927 12.9086 10.1358 12.9086 9.77074C12.9086 9.28119 12.7075 8.8117 12.3495 8.46553C11.9915 8.11937 11.506 7.9249 10.9998 7.9249Z" fill="white"/>
</svg>
