<svg width="158" height="23" viewBox="0 0 158 23" fill="none" xmlns="http://www.w3.org/2000/svg">
<path d="M22.488 9.552C22.488 11.744 21.736 13.488 20.232 14.784C18.744 16.064 16.584 16.784 13.752 16.944V18.792H9.408V16.944C6.576 16.736 4.408 16 2.904 14.736C1.416 13.472 0.672 11.744 0.672 9.552C0.672 7.36 1.416 5.632 2.904 4.368C4.392 3.088 6.56 2.344 9.408 2.136V0.407999H13.752V2.136C16.584 2.328 18.744 3.064 20.232 4.344C21.736 5.608 22.488 7.344 22.488 9.552ZM13.752 13.248C15.176 13.088 16.216 12.704 16.872 12.096C17.544 11.488 17.88 10.632 17.88 9.528C17.88 8.424 17.536 7.576 16.848 6.984C16.176 6.392 15.144 6.016 13.752 5.856V13.248ZM5.28 9.552C5.28 10.64 5.624 11.48 6.312 12.072C7 12.664 8.032 13.048 9.408 13.224V5.856C7.968 6.016 6.92 6.392 6.264 6.984C5.608 7.576 5.28 8.432 5.28 9.552ZM38.5643 4.992L32.9483 18.528C32.2923 20.128 31.4923 21.248 30.5483 21.888C29.6043 22.544 28.4523 22.872 27.0923 22.872C26.4043 22.872 25.7083 22.76 25.0043 22.536C24.3163 22.328 23.7563 22.048 23.3243 21.696L24.9083 18.504C25.1643 18.744 25.4683 18.928 25.8203 19.056C26.1883 19.2 26.5563 19.272 26.9243 19.272C27.3563 19.272 27.7083 19.184 27.9803 19.008C28.2683 18.832 28.5083 18.552 28.7003 18.168L23.1322 4.992H27.8123L31.0043 12.936L34.2203 4.992H38.5643ZM54.3731 14.352V20.688H50.1491V18H41.9651V20.688H37.7171V14.352H38.1971C38.9811 14.336 39.5251 13.912 39.8291 13.08C40.1331 12.232 40.3171 11.048 40.3811 9.528L40.5491 4.992H52.5731V14.352H54.3731ZM44.4851 9.864C44.4371 11.032 44.3491 11.968 44.2211 12.672C44.0931 13.376 43.8531 13.936 43.5011 14.352H48.0131V8.616H44.5331L44.4851 9.864Z" fill="#31D6AE"/>
<path d="M76.9489 4.992V18H56.3329V4.992H60.8689V14.352H64.3969V4.992H68.9329V14.352H72.4369V4.992H76.9489ZM93.2042 11.52C93.2042 11.552 93.1802 11.928 93.1322 12.648H83.6762C83.8682 13.32 84.2362 13.84 84.7802 14.208C85.3402 14.56 86.0362 14.736 86.8682 14.736C87.4922 14.736 88.0282 14.648 88.4762 14.472C88.9402 14.296 89.4042 14.008 89.8682 13.608L92.2682 16.104C91.0042 17.512 89.1562 18.216 86.7242 18.216C85.2042 18.216 83.8682 17.928 82.7162 17.352C81.5642 16.776 80.6682 15.976 80.0282 14.952C79.4042 13.928 79.0922 12.768 79.0922 11.472C79.0922 10.192 79.3962 9.048 80.0042 8.04C80.6282 7.016 81.4842 6.216 82.5722 5.64C83.6602 5.064 84.8842 4.776 86.2442 4.776C87.5402 4.776 88.7162 5.048 89.7722 5.592C90.8282 6.12 91.6602 6.896 92.2682 7.92C92.8922 8.928 93.2042 10.128 93.2042 11.52ZM86.2682 8.016C85.5642 8.016 84.9722 8.216 84.4922 8.616C84.0282 9.016 83.7322 9.56 83.6042 10.248H88.9322C88.8042 9.56 88.5002 9.016 88.0202 8.616C87.5562 8.216 86.9722 8.016 86.2682 8.016ZM103.798 4.776C104.982 4.776 106.054 5.056 107.014 5.616C107.99 6.16 108.758 6.944 109.318 7.968C109.894 8.976 110.182 10.152 110.182 11.496C110.182 12.84 109.894 14.024 109.318 15.048C108.758 16.056 107.99 16.84 107.014 17.4C106.054 17.944 104.982 18.216 103.798 18.216C102.278 18.216 101.07 17.76 100.174 16.848V22.656H95.6141V4.992H99.9581V6.288C100.806 5.28 102.086 4.776 103.798 4.776ZM102.838 14.592C103.638 14.592 104.294 14.32 104.806 13.776C105.318 13.216 105.574 12.456 105.574 11.496C105.574 10.536 105.318 9.784 104.806 9.24C104.294 8.68 103.638 8.4 102.838 8.4C102.038 8.4 101.382 8.68 100.87 9.24C100.358 9.784 100.102 10.536 100.102 11.496C100.102 12.456 100.358 13.216 100.87 13.776C101.382 14.32 102.038 14.592 102.838 14.592ZM112.372 4.992H116.908V11.808L122.356 4.992H126.556V18H121.996V11.16L116.596 18H112.372V4.992ZM129.622 4.992H134.158V9.816H138.838V4.992H143.398V18H138.838V13.44H134.158V18H129.622V4.992ZM157.37 8.616H151.01V18H146.474V4.992H157.37V8.616Z" fill="white"/>
</svg>
