<svg width="60" height="60" viewBox="0 0 60 60" fill="none" xmlns="http://www.w3.org/2000/svg">
<rect width="60" height="60" fill="#303030"/>
<path d="M30.0002 8C23.9252 8 19.0002 12.925 19.0002 19C19.0002 25.075 23.9252 30 30.0002 30C36.0752 30 41.0002 25.075 41.0002 19C41.0002 12.925 36.0752 8 30.0002 8ZM30.0002 14.9473C32.2382 14.9473 34.053 16.761 34.053 19C34.053 21.238 32.2382 23.0527 30.0002 23.0527C27.7622 23.0527 25.9475 21.239 25.9475 19C25.9475 16.762 27.7612 14.9473 30.0002 14.9473ZM39.1858 30.0469C38.4031 30.0095 37.6247 30.2032 36.9377 30.6172C32.7877 33.1162 27.2117 33.1162 23.0627 30.6172C21.1727 29.4782 18.7105 30.0905 17.5725 31.9805C17.0215 32.8965 16.8585 33.9708 17.1155 35.0078C17.3735 36.0448 18.0198 36.9207 18.9358 37.4707C20.3968 38.3507 21.9597 39.0496 23.6037 39.5586L18.01 45.3398C17.301 46.1388 16.9431 47.1654 17.0061 48.2324C17.0691 49.2994 17.543 50.2763 18.342 50.9863C19.106 51.6653 20.061 51.998 21.008 51.998C22.104 51.998 23.1902 51.5525 23.9612 50.6855L30.0002 44.4434L36.0139 50.6523C36.7719 51.5063 37.8621 51.9941 39.0041 51.9941C39.9831 51.9941 40.9264 51.6354 41.6604 50.9844C43.3084 49.5194 43.4591 46.9866 41.9651 45.3066L36.3967 39.5586C38.0407 39.0486 39.6056 38.3487 41.0666 37.4688C41.9816 36.9177 42.628 36.0448 42.885 35.0078C43.142 33.9708 42.979 32.8955 42.428 31.9805C41.877 31.0655 41.004 30.4191 39.967 30.1621C39.708 30.0976 39.4466 30.0593 39.1858 30.0469Z" fill="white"/>
</svg>
