<svg width="16" height="14" viewBox="0 0 16 14" fill="none" xmlns="http://www.w3.org/2000/svg">
<path d="M14.8581 0.00828862C14.5922 -0.0191297 14.3031 0.0212442 14.0126 0.132862C13.6526 0.270537 8.01027 2.57768 2.75064 4.72992L1.01274 5.4409C0.339779 5.70614 0 6.1375 0 6.71854C0 7.12534 0.177116 7.67712 1.02211 8.00225L3.95561 9.14468C4.20927 9.88439 4.79843 11.6019 4.94647 12.0585C5.03449 12.3292 5.25681 13.0111 5.81854 13.1705C5.93377 13.2086 6.05401 13.2283 6.17644 13.2283C6.53092 13.2283 6.78616 13.0679 6.91099 12.9745L8.77548 11.4417L11.0401 13.4774C11.1273 13.5637 11.589 14 12.2091 14C12.9829 14 13.5698 13.3739 13.6923 12.7679C13.7587 12.4358 15.9428 1.7781 15.9428 1.77966C16.1388 0.924832 15.7863 0.481388 15.5599 0.292377C15.3658 0.130978 15.1241 0.0357069 14.8581 0.00828862ZM14.3283 1.68851C14.0267 3.1586 12.3822 11.1829 12.1325 12.3395L8.82237 9.36344L6.57653 11.2123L7.19855 8.84692C7.19855 8.84692 11.4896 4.62478 11.748 4.37899C11.9561 4.1822 11.9997 4.11322 11.9997 4.04477C11.9997 3.95376 11.9515 3.88829 11.8403 3.88829C11.7402 3.88829 11.6044 3.98146 11.5324 4.02502C10.6175 4.57946 6.72172 6.73687 4.80424 7.79716L2.02235 6.71702L3.37266 6.16555C6.81266 4.75769 12.9392 2.2501 14.3283 1.68851Z" fill="white"/>
</svg>
