<svg width="60" height="60" viewBox="0 0 60 60" fill="none" xmlns="http://www.w3.org/2000/svg">
<rect width="60" height="60" fill="#303030"/>
<path d="M51.7629 41.202C49.9659 37.968 45.3369 34.082 43.4259 32.391C42.9029 31.928 42.8469 31.127 43.3229 30.615C46.9699 26.696 49.8869 22.193 50.8909 19.472C51.3339 18.27 50.4169 17 49.1249 17H45.3719C44.1349 17 43.4109 17.444 43.0659 18.151C40.0349 24.362 37.4349 27.05 35.6149 28.621C34.5959 29.501 33.0069 28.772 33.0069 27.433C33.0069 24.853 33.0069 21.518 33.0069 19.153C33.0069 18.006 32.0689 17.078 30.9119 17.078L24.0559 17C23.1929 17 22.6999 17.977 23.2179 18.662L24.3499 20.287C24.7759 20.85 25.0059 21.535 25.0059 22.238L24.9999 29.556C24.9999 30.829 23.4569 31.451 22.5409 30.559C19.4419 27.541 16.7529 21.378 15.7849 18.431C15.5049 17.578 14.7059 17.002 13.7999 17L10.1029 16.991C8.71589 16.991 7.70189 18.306 8.07889 19.63C11.4569 31.487 18.3879 42.767 30.7399 43.99C31.9569 44.11 33.0069 43.13 33.0069 41.917V38.071C33.0069 36.968 33.8719 36.02 34.9839 35.992C35.0229 35.991 35.0619 35.991 35.1009 35.991C38.3679 35.991 42.0269 40.746 43.3069 42.97C43.6749 43.61 44.3629 44 45.1069 44H50.0799C51.5309 44 52.4619 42.461 51.7629 41.202Z" fill="white"/>
</svg>
