<svg width="143" height="64" viewBox="0 0 143 64" fill="#484848" xmlns="http://www.w3.org/2000/svg">
<rect width="143" height="64" rx="16" fill="#f4f4f4"/>
<path fill-rule="evenodd" clip-rule="evenodd" d="M35.0252 16C34.9472 22.2846 34.5186 25.8169
32.1635 28.174C29.8084 30.5312 26.2792 30.9602 20 31.0382V31.9674C26.2792 32.0455 29.8084
32.4745 32.1635 34.8316C34.5186 37.1887 34.9472 40.721 35.0252 47.0056H35.9536C36.0316
40.721 36.4602 37.1887 38.8153 34.8316C41.1704 32.4745 44.6996 32.0455 50.9788 31.9674V31.0382C44.6996
30.9601 41.1704 30.5312 38.8153 28.174C36.4602 25.8169 36.0316 22.2846 35.9536 16H35.0252Z" fill="484848"/>
<path d="M61.6507 48.0003V43.1298H74.1352V48.0003H77.9275V39.9724H75.7461V19.7852H61.4829L61.0802
31.3735C60.946 35.1355 60.5432 38.1922 59.4693 39.9724H57.8584V48.0003H61.6507ZM64.6376
31.9109L64.9396 22.9426H71.6853V39.9724H63.2952C63.9999 38.3937 64.5034 35.673 64.6376 31.9109Z" fill="484848"/>
<path d="M84.7418 40.3083C82.6946 40.3083 80.681 39.5693 79.6071 38.7632V42.0214C80.379
42.6596 82.3255 43.4657 85.2117 43.4657C89.4738 43.4657 91.7224 41.5511 91.7224 38.1586C91.7224
36.1768 90.4807 34.8332 88.2657 34.363C90.3464 33.6912 91.219 32.2133 91.219 30.3322C91.219
27.4771 88.9704 25.8984 85.3459 25.8984C82.7282 25.8984 81.0166 26.7046 80.0434
27.3092V30.5674C81.1173 29.862 82.594 29.0558 84.7754 29.0558C86.252 29.0558 87.1917 29.7612 87.1917
31.004C87.1917 32.314 86.3863 33.0194 84.7418 33.0194H82.2248V36.0424H84.7418C86.789 36.0424 87.5945
36.6471 87.5945 38.125C87.5945 39.4686 86.6212 40.3083 84.7418 40.3083Z" fill="484848"/>
<path d="M106.833 41.9878V38.7296C105.591 39.5693 103.51 40.3083 101.564
 40.3083C98.6442 40.3083 97.5367 38.9311 97.3689 36.1096H107.001V33.9935C107.001
 28.1153 104.417 25.8984 100.423 25.8984C95.5567 25.8984 93.241 29.6269 93.241
 34.7325C93.241 40.6106 96.1272 43.4657 101.228 43.4657C103.779 43.4657 105.658
 42.7939 106.833 41.9878ZM100.356 29.0558C102.336 29.0558 102.94 30.7017 102.94
 32.8179V33.1538H97.3689C97.4696 30.4666 98.4429 29.0558 100.356 29.0558Z" fill="484848"/>
<path d="M119.006 26.2343V32.9186H113.67V26.2343H109.676V43.1298H113.67V36.076H119.006V43.1298H123V26.2343H119.006Z" fill="484848"/>
</svg>
