<svg width="35" height="35" viewBox="0 0 35 35" fill="none" xmlns="http://www.w3.org/2000/svg">
<g clip-path="url(#clip0_33_196)">
<path d="M17.5456 -0.00952148C27.1903 -0.00952148 35.0091 7.80934 35.0091 17.454C35.0091 27.0987 27.1903 34.9176 17.5456 34.9176C7.90089 34.9176 0.0820312 27.0987 0.0820312 17.454C0.0820312 7.80934 7.90089 -0.00952148 17.5456 -0.00952148ZM24.4953 8.5407H10.5973C9.51525 8.5407 8.63734 9.41862 8.63734 10.5022V24.4074C8.63734 25.4902 9.51452 26.3681 10.5973 26.3681H24.4953C25.5773 26.3681 26.4553 25.4902 26.4553 24.4074V10.5022C26.4545 9.41862 25.5773 8.5407 24.4953 8.5407ZM17.5361 14.0313C19.4203 14.0313 20.9471 15.5597 20.9471 17.4446C20.9471 19.3294 19.4195 20.857 17.5361 20.857C15.6519 20.857 14.1251 19.3287 14.1251 17.4446C14.1251 15.5597 15.6519 14.0313 17.5361 14.0313ZM24.3698 23.5695C24.3698 23.9633 24.0512 24.2827 23.6574 24.2827H11.4228C11.029 24.2827 10.7104 23.9633 10.7104 23.5695V16.1H12.2584C12.1512 16.5272 12.0936 16.9742 12.0936 17.4351C12.0936 20.4567 14.5421 22.9067 17.5623 22.9067C20.5825 22.9067 23.0311 20.4575 23.0311 17.4351C23.0311 16.9742 22.9735 16.5272 22.8663 16.1H24.3691V23.5695H24.3698ZM24.4158 13.2927C24.4158 13.6864 24.0964 14.0058 23.7034 14.0058H21.6799C21.2862 14.0058 20.9676 13.6864 20.9676 13.2927V11.2678C20.9676 10.874 21.2869 10.5547 21.6799 10.5547H23.7034C24.0971 10.5547 24.4158 10.874 24.4158 11.2678V13.2927Z" fill="white"/>
</g>
<defs>
<clipPath id="clip0_33_196">
<rect width="35" height="35" fill="white"/>
</clipPath>
</defs>
</svg>
