<svg width="35" height="35" viewBox="0 0 35 35" fill="none" xmlns="http://www.w3.org/2000/svg">
<path d="M34.8263 17.5C34.8263 27.0674 27.0687 34.825 17.5005 34.825C7.93241 34.825 0.174805 27.0674 0.174805 17.5C0.174805 7.93046 7.93241 0.175049 17.5005 0.175049C27.0687 0.175049 34.8263 7.93046 34.8263 17.5ZM27.7307 9.02349C26.8725 9.5339 25.9217 9.90432 24.9089 10.1034C24.0995 9.23859 22.9445 8.69901 21.6663 8.69901C19.2133 8.69901 17.2234 10.6889 17.2234 13.1433C17.2234 13.4918 17.2628 13.8294 17.3372 14.1554C13.6454 13.9694 10.3707 12.2012 8.1796 9.51276C7.79751 10.1675 7.57803 10.9324 7.57803 11.7469C7.57803 13.2877 8.36262 14.6475 9.5548 15.4438C8.8271 15.4212 8.14095 15.2207 7.54158 14.8882V14.9443C7.54158 17.0961 9.07283 18.892 11.1065 19.3011C10.7331 19.4032 10.3408 19.4579 9.93543 19.4579C9.64887 19.4579 9.37032 19.4294 9.0998 19.3784C9.66637 21.143 11.3063 22.4278 13.2502 22.4642C11.7292 23.6557 9.81439 24.3651 7.73262 24.3651C7.37387 24.3651 7.02022 24.3455 6.67314 24.3039C8.63897 25.5646 10.9745 26.2989 13.4836 26.2989C21.6568 26.2989 26.1251 19.53 26.1251 13.6573C26.1251 13.4656 26.1222 13.2731 26.1127 13.082C26.9804 12.4564 27.7344 11.6733 28.3287 10.7837C27.5331 11.1373 26.6764 11.375 25.778 11.4822C26.6939 10.9332 27.399 10.0625 27.7307 9.02349Z" fill="white"/>
</svg>
