<svg width="35" height="35" viewBox="0 0 35 35" fill="none" xmlns="http://www.w3.org/2000/svg">
<path d="M34.8258 17.5C34.8258 27.0674 27.0682 34.825 17.5008 34.825C7.93192 34.825 0.174316 27.0674 0.174316 17.5C0.174316 7.93119 7.93192 0.175049 17.5008 0.175049C27.0682 0.175049 34.8258 7.93119 34.8258 17.5ZM25.7097 21.1452C23.7986 19.3711 24.0538 19.6569 26.3587 16.5879C27.7609 14.7197 28.3245 13.5793 28.1451 13.0908C27.9796 12.6248 26.9493 12.7488 26.9493 12.7488L23.5149 12.7699C23.5149 12.7699 23.259 12.7349 23.0709 12.8472C22.8893 12.9573 22.769 13.2155 22.769 13.2155C22.769 13.2155 22.228 14.6607 21.5046 15.8908C19.9778 18.4859 19.3645 18.623 19.1151 18.4604C18.5347 18.0841 18.6798 16.9524 18.6798 16.1482C18.6798 13.6333 19.0605 12.5847 17.9361 12.3135C17.5635 12.2231 17.2893 12.164 16.3356 12.1538C15.112 12.1421 14.0744 12.1589 13.4889 12.444C13.0981 12.6358 12.7969 13.0616 12.9807 13.0857C13.2067 13.1156 13.7215 13.2257 13.9928 13.5954C14.3457 14.0737 14.3311 15.1492 14.3311 15.1492C14.3311 15.1492 14.5367 18.1067 13.86 18.4749C13.3992 18.728 12.7641 18.2124 11.4028 15.8587C10.7042 14.6541 10.1778 13.3205 10.1778 13.3205C10.1778 13.3205 10.0757 13.0696 9.89192 12.9362C9.6739 12.7743 9.36546 12.7189 9.36546 12.7189L6.10682 12.732C6.10682 12.732 5.61536 12.7298 5.43671 12.9428C5.27702 13.1316 5.42359 13.4911 5.42359 13.4911C5.42359 13.4911 7.97494 19.4003 10.8654 22.4088C13.5181 25.168 16.5266 24.8588 16.5266 24.8588H17.888C17.888 24.8588 18.3007 24.9412 18.5107 24.721C18.7039 24.511 18.6973 24.2499 18.6973 24.2499C18.6973 24.2499 18.6725 22.4183 19.5206 22.1478C20.3591 21.8853 21.4339 23.9189 22.5743 24.6976C23.4362 25.2897 24.0903 25.1592 24.0903 25.1592L27.1389 25.1184C27.1389 25.1184 28.7329 25.0192 27.9767 23.7636C27.9133 23.6622 27.5356 22.8383 25.7097 21.1452Z" fill="white"/>
</svg>
