<svg width="35" height="35" viewBox="0 0 35 35" fill="none" xmlns="http://www.w3.org/2000/svg">
<path d="M17.4998 0.00952148C27.1598 0.00952148 34.9903 7.84077 34.9903 17.5C34.9903 27.1593 27.1591 34.9906 17.4998 34.9906C7.84053 34.9906 0.00927734 27.1593 0.00927734 17.5C0.00927734 7.84077 7.8398 0.00952148 17.4998 0.00952148ZM26.1149 13.1928C25.9326 12.2179 25.1211 11.4903 24.1884 11.4006C21.9616 11.2577 19.7267 11.1417 17.4961 11.1403C15.2656 11.1388 13.0388 11.2525 10.8119 11.3933C9.87563 11.4837 9.06407 12.2078 8.88251 13.1863C8.67543 14.5958 8.57189 16.0191 8.57189 17.4417C8.57189 18.8643 8.67543 20.2877 8.88251 21.6971C9.06407 22.6757 9.87563 23.4865 10.8119 23.5762C13.0395 23.7169 15.2649 23.8606 17.4961 23.8606C19.7259 23.8606 21.963 23.7351 24.1884 23.5908C25.1211 23.5004 25.9326 22.6655 26.1149 21.6906C26.3234 20.2833 26.4277 18.8621 26.4277 17.441C26.4277 16.0206 26.3234 14.6001 26.1149 13.1928ZM15.4756 20.0047V14.8167L20.3078 17.4111L15.4756 20.0047Z" fill="white"/>
</svg>
